# xmcd
#
# Track frame offsets:
#	150
#	15887
#	29757
#	44072
#	59807
#	71995
#	87767
#	101635
#	116742
#	130505
#	147497
#	160095
#	171817
#	189127
#
# Disc length: 2712
#
# Revision: 2
# Processed by: cddbd v1.5.1PL0 Copyright (c) Steve Scherf et al.
# Submitted via: DiscPlay 4.0.4
# Normalized: r1:DSETVAR1
#
DISCID=c50a960e
DTITLE=Various Artist - Mr Music Country 7/96
DYEAR=1900
DGENRE=
TTITLE0=Dough Supernaw - We're all here
TTITLE1=Mark Fletcher - Not the wine
TTITLE2=TOny Pritchett - A rose in the bible
TTITLE3=Clinton Gregory - Today's just not your day
TTITLE4=Mitch Sands - Don't get me started
TTITLE5=Rhonda Vincent - You beat all I've ever seen
TTITLE6=Clay Walker - Hand me down heart
TTITLE7=Dale Watson and The lone starts - One memory at a time
TTITLE8=Tinita - Slippin' away
TTITLE9=Daryle Singletary - What am I doing there
TTITLE10=Aaron Tippin - She mad a man out of a mountain of stone
TTITLE11=Jeff Copley - Rock and roll heart
TTITLE12=Chely Wright - The other woman
TTITLE13=Alabama - I've loved a lot more than I hurt
EXTD=
EXTT0=
EXTT1=
EXTT2=
EXTT3=
EXTT4=
EXTT5=
EXTT6=
EXTT7=
EXTT8=
EXTT9=
EXTT10=
EXTT11=
EXTT12=
EXTT13=
PLAYORDER=
